<svg width="233" height="110" viewBox="0 0 233 110" fill="none" xmlns="http://www.w3.org/2000/svg">
<path d="M47.28 109.361L94.2603 82.2166V27.9669L47.28 55.0725V109.361Z" fill="#35777A"/>
<path d="M47.2801 109.361V55.0647L0.299805 27.9669V82.2166L47.2801 109.361Z" fill="#43979B"/>
<path d="M0.299805 27.9671L47.2801 55.0726L94.2604 27.9671L47.2801 0.861572L0.299805 27.9671Z" fill="#3F898D"/>
<path d="M42.4466 7.38069L8.3811 27.0621C8.45844 27.6808 8.45844 28.2608 8.3811 28.8795L42.4466 48.5609C45.308 46.4343 49.252 46.4343 52.1134 48.5609L86.1789 28.8795C86.1016 28.2608 86.1016 27.6808 86.1789 27.0621L52.1134 7.38069C49.2133 9.50737 45.308 9.50737 42.4466 7.38069Z" fill="#51B8BC"/>
<path d="M89.4271 34.2928L55.3229 54.1676C55.7095 57.725 53.7762 61.089 50.4895 62.5197L50.5282 101.651C51.0695 101.883 51.6108 102.192 52.1135 102.579L86.179 82.8971C85.7924 79.3398 87.7257 75.9757 91.0124 74.5451V35.2209C90.4711 34.9889 89.9297 34.6795 89.4271 34.2928Z" fill="#459DA2"/>
<path d="M5.13319 34.5248C4.63052 34.8728 4.12785 35.1822 3.54785 35.4528V74.7771C6.83454 76.2078 8.76788 79.6104 8.38121 83.1291L42.4467 102.811C42.9494 102.463 43.4521 102.153 44.0321 101.883V62.5583C40.7454 61.1276 38.8121 57.725 39.1987 54.2063L5.13319 34.5248Z" fill="#64C1C8"/>
<path d="M124.655 32.0447H115.241V77.5863H124.655V32.0447Z" fill="#073A53"/>
<path d="M141.071 77.5863V60.876C143.366 61.0525 145.72 61.0525 147.661 61.0525C161.077 61.0525 164.96 54.4036 164.96 46.225C164.96 36.2811 157.84 32.0447 146.896 32.0447H131.657V77.5863H141.071ZM146.131 54.4625C144.366 54.4625 141.836 54.4625 141.012 54.4036V38.9289H146.896C152.545 38.9289 155.781 41.6355 155.781 46.578V46.6957C155.84 50.5791 154.428 54.4625 146.131 54.4625Z" fill="#073A53"/>
<path d="M197.145 32.0447H168.549V77.5863H177.963V57.5221H195.851V50.6968H177.905V38.9877H196.498L197.145 32.0447Z" fill="#073A53"/>
<path d="M228.139 41.5846L230.524 35.5086C227.003 32.9533 222.177 32.0447 216.157 32.0447C207.356 32.0447 200.144 36.1333 200.144 44.5374C200.144 52.0898 205.709 55.0427 211.217 56.8598L216.782 58.7337C220.587 60.0397 223.71 61.289 223.71 65.3775C223.71 69.1253 220.473 70.6018 215.533 70.6018C210.536 70.6018 205.198 69.1253 202.132 67.1947L199.747 73.7817C203.722 76.337 208.775 77.5863 215.533 77.5863C225.186 77.5863 232.625 73.3274 232.625 64.3554C232.625 55.9512 226.208 53.2823 219.735 51.1245L213.716 49.137C211.104 48.2852 209.116 47.0928 209.116 43.7424C209.116 40.3353 211.899 38.9725 216.101 38.9725C221.211 38.8022 225.186 39.7675 228.139 41.5846Z" fill="#073A53"/>
</svg>
